<svg width="32" height="32" viewBox="0 0 32 32" fill="none" xmlns="http://www.w3.org/2000/svg">
<path d="M18.372 11.0677C18.4084 11.1175 18.4541 11.1563 18.5091 11.1841C18.5641 11.2119 18.6223 11.226 18.684 11.2259H19.4421C19.4509 11.2499 19.4605 11.2733 19.4707 11.2967C19.481 11.32 19.4919 11.3429 19.5034 11.3656C19.515 11.3882 19.5273 11.4105 19.5402 11.4324C19.5533 11.4543 19.5667 11.4758 19.5809 11.4969C19.5952 11.5181 19.61 11.5387 19.6254 11.559C19.6408 11.5793 19.6568 11.5989 19.6734 11.6182C19.69 11.6375 19.7071 11.6565 19.7247 11.6747C19.7425 11.6929 19.7606 11.7106 19.7794 11.7279C19.7982 11.745 19.8175 11.7618 19.8371 11.7777C19.8569 11.7938 19.877 11.8093 19.8976 11.8242C19.9183 11.8391 19.9394 11.8534 19.9609 11.867C19.9823 11.8806 20.0042 11.8936 20.0265 11.9059C20.0488 11.9183 20.0712 11.9299 20.0942 11.9409C20.1172 11.9518 20.1405 11.9622 20.164 11.9718C20.1875 11.9815 20.2113 11.9904 20.2355 11.9986C20.2595 12.0069 20.2838 12.0144 20.3083 12.0211C20.3329 12.028 20.3576 12.034 20.3824 12.0392C20.4074 12.0446 20.4324 12.0491 20.4576 12.053C20.4827 12.0569 20.5079 12.06 20.5332 12.0624C20.5585 12.0647 20.5839 12.0662 20.6094 12.0671C20.6349 12.0679 20.6602 12.0681 20.6857 12.0674C20.7112 12.0668 20.7365 12.0654 20.7618 12.0632C20.7872 12.061 20.8125 12.0582 20.8377 12.0545C20.8628 12.0508 20.8878 12.0465 20.9128 12.0414C20.9378 12.0362 20.9625 12.0304 20.9871 12.0238C21.0116 12.0173 21.0359 12.0099 21.0601 12.0018C21.0842 11.9938 21.1082 11.9851 21.1317 11.9757C21.1554 11.9663 21.1787 11.956 21.2018 11.9453C21.2248 11.9344 21.2474 11.923 21.2698 11.9108C21.2922 11.8987 21.3142 11.8858 21.3357 11.8723C21.3573 11.8589 21.3785 11.8448 21.3993 11.8301C21.4201 11.8153 21.4404 11.8 21.4601 11.7841C21.4799 11.7682 21.4994 11.7517 21.5182 11.7346C21.5371 11.7177 21.5554 11.7001 21.5734 11.682C21.5912 11.6637 21.6084 11.6451 21.6252 11.6259C21.642 11.6068 21.6581 11.5872 21.6737 11.5671C21.6893 11.5469 21.7042 11.5263 21.7185 11.5053C21.7329 11.4844 21.7466 11.4629 21.7597 11.4411C21.7728 11.4193 21.7852 11.3971 21.797 11.3745C21.8089 11.352 21.82 11.329 21.8304 11.3059C21.8408 11.2827 21.8505 11.2592 21.8595 11.2354C21.8686 11.2116 21.8768 11.1876 21.8845 11.1633C21.8921 11.139 21.899 11.1145 21.9052 11.0898C21.9114 11.0652 21.9167 11.0403 21.9214 11.0154C21.9263 10.9904 21.9302 10.9652 21.9333 10.94C21.9365 10.9147 21.939 10.8894 21.9407 10.864C21.9426 10.8387 21.9436 10.8132 21.9437 10.7877C21.9439 10.7624 21.9434 10.7369 21.9421 10.7116C21.9409 10.6861 21.9387 10.6607 21.936 10.6354C21.9332 10.6101 21.9297 10.5849 21.9255 10.5599C21.9211 10.5348 21.9161 10.5099 21.9104 10.4851C21.9047 10.4603 21.8981 10.4356 21.8909 10.4113C21.8839 10.387 21.8758 10.3627 21.8673 10.3388C21.8585 10.3149 21.8493 10.2912 21.8392 10.2679C21.8292 10.2444 21.8184 10.2214 21.8072 10.1986C21.7958 10.1758 21.7837 10.1535 21.771 10.1315C21.7582 10.1094 21.745 10.0877 21.7309 10.0664C21.717 10.0453 21.7024 10.0245 21.6871 10.004C21.6718 9.98374 21.6561 9.96378 21.6396 9.94432C21.6232 9.92486 21.6062 9.90591 21.5888 9.88746C21.5712 9.86901 21.5532 9.85106 21.5346 9.83378C21.516 9.81634 21.4969 9.79956 21.4774 9.78329C21.4578 9.76702 21.4378 9.75142 21.4172 9.73632C21.3967 9.72123 21.3758 9.7068 21.3545 9.69288C21.3332 9.67912 21.3114 9.66587 21.2892 9.65329C21.2671 9.64088 21.2446 9.62897 21.2218 9.61773C21.199 9.60649 21.1758 9.59592 21.1523 9.58619C21.1289 9.5763 21.1052 9.56707 21.0812 9.55869C21.0571 9.5503 21.0329 9.54258 21.0084 9.53554C20.9839 9.52849 20.9593 9.52229 20.9344 9.51658C20.9096 9.51105 20.8848 9.50635 20.8596 9.50216C20.8345 9.49813 20.8093 9.49478 20.784 9.49226C20.7587 9.48958 20.7333 9.48773 20.7078 9.48672C20.6825 9.48555 20.657 9.48521 20.6315 9.48572C20.6062 9.48605 20.5807 9.48723 20.5553 9.48907C20.53 9.49109 20.5047 9.49377 20.4795 9.49712C20.4542 9.50048 20.4292 9.50467 20.4042 9.50954C20.3792 9.51457 20.3544 9.5201 20.3297 9.52648C20.3052 9.53285 20.2808 9.5399 20.2566 9.54778C20.2323 9.5555 20.2083 9.56405 20.1846 9.57328C20.161 9.5825 20.1375 9.5924 20.1144 9.60297C20.0912 9.61354 20.0684 9.62494 20.0459 9.63685C20.0236 9.64876 20.0015 9.66134 19.9797 9.67459C19.958 9.68785 19.9367 9.70177 19.9158 9.71636C19.895 9.73079 19.8745 9.74588 19.8545 9.76165C19.8344 9.77742 19.8149 9.79369 19.796 9.81063C19.7769 9.82741 19.7584 9.84485 19.7403 9.8628C19.7223 9.88092 19.7049 9.89937 19.688 9.91832C19.671 9.93728 19.6547 9.9569 19.639 9.97686C19.6232 9.99683 19.6079 10.0173 19.5935 10.0381C19.5789 10.0589 19.565 10.0802 19.5518 10.102C19.5383 10.1236 19.5258 10.1456 19.5138 10.1681C19.5018 10.1906 19.4905 10.2134 19.4798 10.2365C19.4692 10.2595 19.4592 10.283 19.4499 10.3066C19.4407 10.3303 19.4322 10.3543 19.4243 10.3784C19.4164 10.4028 19.4093 10.4271 19.403 10.4517H18.8799L17.8604 9.06167C17.824 9.01185 17.7782 8.9731 17.7234 8.94526C17.6684 8.91724 17.61 8.90332 17.5484 8.90332H16V9.67761H17.3523L18.372 11.0677Z" fill="#5D7285"/>
<path d="M22.704 13.0312C22.6671 13.0312 22.6303 13.0328 22.5936 13.0359C22.5569 13.0391 22.5203 13.0438 22.4841 13.05C22.4477 13.0564 22.4118 13.0643 22.376 13.0735C22.3405 13.0829 22.3052 13.0938 22.2705 13.1062C22.2358 13.1186 22.2017 13.1324 22.1682 13.1478C22.1347 13.1631 22.1018 13.1797 22.0697 13.1978C22.0377 13.2159 22.0063 13.2354 21.976 13.2562C21.9456 13.277 21.9161 13.2991 21.8876 13.3224C21.8591 13.3458 21.8315 13.3703 21.805 13.3959C21.7785 13.4216 21.7534 13.4484 21.7292 13.4763C21.7051 13.5041 21.6821 13.5328 21.6604 13.5627C21.6388 13.5925 21.6183 13.6232 21.5994 13.6547C21.5803 13.6863 21.5627 13.7185 21.5464 13.7517C21.5301 13.7847 21.5152 13.8185 21.5018 13.8527C21.4885 13.8871 21.4766 13.922 21.4662 13.9572C21.4558 13.9926 21.4469 14.0283 21.4395 14.0645H19.5924L18.4705 12.6612C18.4336 12.6154 18.3888 12.5797 18.3358 12.5544C18.2828 12.5289 18.2268 12.5161 18.1681 12.5161H16.1035V13.2902H17.982L19.1041 14.6936C19.1408 14.7394 19.1858 14.7749 19.2388 14.8004C19.2918 14.8259 19.3476 14.8387 19.4063 14.8387H21.5231C21.5385 14.8739 21.5556 14.9084 21.5741 14.9423C21.5927 14.976 21.6126 15.0089 21.6343 15.041C21.6558 15.0728 21.6786 15.1039 21.7029 15.1337C21.7272 15.1637 21.7527 15.1924 21.7797 15.2201C21.8065 15.2478 21.8346 15.2741 21.8637 15.2991C21.8929 15.3243 21.9233 15.3481 21.9547 15.3704C21.986 15.3929 22.0182 15.4138 22.0516 15.4333C22.0848 15.4529 22.1189 15.4709 22.1536 15.4873C22.1885 15.5038 22.2241 15.5187 22.2603 15.5319C22.2964 15.5452 22.3331 15.5568 22.3703 15.5668C22.4076 15.5767 22.4451 15.5851 22.4831 15.5916C22.5211 15.5982 22.5592 15.6032 22.5976 15.6064C22.636 15.6096 22.6746 15.6109 22.713 15.6108C22.7516 15.6104 22.79 15.6084 22.8284 15.6047C22.8668 15.601 22.9049 15.5957 22.9428 15.5886C22.9807 15.5814 23.0181 15.5727 23.0552 15.5621C23.0923 15.5517 23.1289 15.5395 23.1649 15.5257C23.2008 15.512 23.2362 15.4967 23.2708 15.4798C23.3055 15.4628 23.3392 15.4444 23.3722 15.4244C23.4051 15.4044 23.4372 15.3831 23.4682 15.3603C23.4992 15.3375 23.5293 15.3134 23.5581 15.2879C23.587 15.2622 23.6148 15.2355 23.6411 15.2075C23.6676 15.1795 23.693 15.1505 23.7168 15.1201C23.7406 15.0899 23.7631 15.0587 23.7842 15.0264C23.8054 14.9942 23.8248 14.9609 23.8429 14.9271C23.861 14.893 23.8777 14.8583 23.8926 14.8227C23.9077 14.7872 23.9209 14.7511 23.9327 14.7144C23.9446 14.6776 23.9546 14.6406 23.963 14.603C23.9714 14.5654 23.9781 14.5275 23.9832 14.4893C23.9882 14.451 23.9915 14.4126 23.9931 14.3742C23.9947 14.3356 23.9946 14.2972 23.9927 14.2586C23.9909 14.2202 23.9872 14.1818 23.982 14.1437C23.9766 14.1055 23.9697 14.0676 23.961 14.03C23.9523 13.9926 23.9419 13.9555 23.93 13.9188C23.9179 13.8822 23.9043 13.8461 23.8891 13.8107C23.8738 13.7753 23.857 13.7408 23.8386 13.7069C23.8203 13.673 23.8005 13.64 23.7792 13.6079C23.7579 13.5757 23.7351 13.5447 23.7111 13.5145C23.6869 13.4845 23.6616 13.4556 23.6349 13.4278C23.6083 13.3999 23.5802 13.3734 23.5512 13.3481C23.5222 13.3228 23.492 13.2988 23.4608 13.2763C23.4296 13.2537 23.3974 13.2325 23.3644 13.2127C23.3312 13.1931 23.2973 13.1748 23.2625 13.1582C23.2278 13.1415 23.1924 13.1264 23.1562 13.1129C23.1201 13.0993 23.0836 13.0876 23.0463 13.0774C23.0093 13.0671 22.9717 13.0586 22.9338 13.0517C22.8959 13.0448 22.8576 13.0398 22.8194 13.0363C22.781 13.0329 22.7424 13.0311 22.704 13.0312Z" fill="#5D7285"/>
<path d="M20.7578 19.9341C20.6926 19.9341 20.6276 19.9391 20.5632 19.9492C20.4987 19.9591 20.4352 19.9738 20.373 19.9935C20.3108 20.0131 20.2504 20.0374 20.1919 20.0661C20.1333 20.095 20.0771 20.128 20.0236 20.1654C19.9701 20.2026 19.9198 20.2439 19.8725 20.2889C19.8252 20.3338 19.7816 20.3821 19.7416 20.4338C19.7017 20.4855 19.6658 20.5398 19.6343 20.5968C19.6026 20.6539 19.5754 20.7131 19.5528 20.7743H18.684C18.6223 20.7741 18.5641 20.7882 18.5091 20.8161C18.4541 20.8439 18.4084 20.8827 18.372 20.9325L17.3523 22.3226H16V23.0969H17.5484C17.61 23.0969 17.6684 23.0829 17.7234 23.0549C17.7782 23.0271 17.824 22.9883 17.8604 22.9385L18.8799 21.5484H19.5137C19.5237 21.587 19.5357 21.6251 19.5492 21.6627C19.5628 21.7001 19.5783 21.737 19.5952 21.773C19.6123 21.8091 19.6311 21.8443 19.6514 21.8785C19.6717 21.9129 19.6935 21.9463 19.717 21.9785C19.7405 22.0109 19.7653 22.0421 19.7916 22.0721C19.818 22.102 19.8456 22.1308 19.8747 22.1582C19.9037 22.1857 19.9339 22.2117 19.9652 22.2363C19.9966 22.2608 20.0291 22.284 20.0627 22.3056C20.0962 22.3273 20.1308 22.3472 20.1662 22.3655C20.2016 22.384 20.2378 22.4007 20.2747 22.4157C20.3118 22.4308 20.3494 22.444 20.3876 22.4556C20.4257 22.4672 20.4644 22.4769 20.5035 22.4848C20.5426 22.4926 20.582 22.4989 20.6218 22.503C20.6614 22.5074 20.7011 22.5098 20.741 22.5104C20.781 22.5109 20.8209 22.5098 20.8606 22.5066C20.9004 22.5036 20.94 22.4985 20.9792 22.4916C21.0187 22.4849 21.0576 22.4764 21.0961 22.466C21.1346 22.4554 21.1726 22.4433 21.21 22.4294C21.2474 22.4155 21.284 22.3997 21.3199 22.3824C21.356 22.365 21.391 22.346 21.4251 22.3254C21.4593 22.3049 21.4925 22.2826 21.5246 22.259C21.5568 22.2353 21.5876 22.2102 21.6175 22.1837C21.6472 22.157 21.6757 22.1292 21.7029 22.1C21.73 22.0708 21.7559 22.0403 21.7802 22.0087C21.8047 21.9772 21.8275 21.9445 21.8488 21.9108C21.8701 21.877 21.8899 21.8423 21.908 21.8068C21.926 21.7712 21.9424 21.7348 21.9572 21.6977C21.9719 21.6607 21.9848 21.6229 21.9961 21.5847C22.0073 21.5464 22.0167 21.5077 22.0244 21.4684C22.032 21.4293 22.0378 21.3898 22.0417 21.3502C22.0457 21.3104 22.0479 21.2707 22.0481 21.2307C22.0484 21.1908 22.0467 21.1509 22.0434 21.1111C22.0399 21.0714 22.0347 21.032 22.0274 20.9925C22.0204 20.9533 22.0115 20.9145 22.0008 20.876C21.99 20.8375 21.9775 20.7998 21.9632 20.7624C21.9489 20.7252 21.933 20.6886 21.9154 20.6529C21.8978 20.617 21.8785 20.5821 21.8577 20.5482C21.8367 20.5141 21.8144 20.4811 21.7904 20.4492C21.7664 20.4174 21.7411 20.3865 21.7143 20.357C21.6874 20.3274 21.6593 20.2991 21.6299 20.2723C21.6004 20.2453 21.5698 20.2198 21.538 20.1956C21.5063 20.1714 21.4734 20.149 21.4395 20.1278C21.4055 20.1069 21.3707 20.0874 21.335 20.0696C21.2993 20.0517 21.2629 20.0356 21.2256 20.0212C21.1884 20.0067 21.1507 19.9941 21.1123 19.9832C21.0738 19.9722 21.0351 19.9631 20.9958 19.9559C20.9566 19.9485 20.917 19.943 20.8772 19.9395C20.8375 19.9358 20.7977 19.9339 20.7578 19.9341Z" fill="#5D7285"/>
<path d="M22.5355 16.2581C22.4676 16.2582 22.4 16.2638 22.3329 16.2747C22.2658 16.2856 22.1999 16.3017 22.1353 16.323C22.0707 16.3443 22.0083 16.3706 21.9479 16.4018C21.8876 16.433 21.83 16.4687 21.7752 16.5092C21.7205 16.5496 21.6693 16.5939 21.6217 16.6424C21.574 16.6908 21.5304 16.7428 21.491 16.7982C21.4516 16.8535 21.4167 16.9117 21.3865 16.9726C21.3563 17.0335 21.3312 17.0964 21.3109 17.1613H19.3035C19.2446 17.1613 19.1888 17.1741 19.1358 17.1996C19.0827 17.2251 19.0378 17.2606 19.0011 17.3064L17.8785 18.7098H16V19.4839H18.0646C18.1233 19.4839 18.1791 19.4711 18.2321 19.4456C18.2851 19.4203 18.3301 19.3846 18.367 19.3388L19.4894 17.9355H21.3109C21.3228 17.9732 21.3364 18.0101 21.3518 18.0463C21.367 18.0827 21.384 18.1183 21.4026 18.153C21.4212 18.1879 21.4414 18.2216 21.4632 18.2547C21.4848 18.2876 21.508 18.3194 21.5326 18.3503C21.5573 18.381 21.5833 18.4107 21.6106 18.439C21.638 18.4674 21.6665 18.4946 21.6963 18.5202C21.7262 18.546 21.7572 18.5704 21.7893 18.5934C21.8213 18.6163 21.8543 18.6376 21.8884 18.6576C21.9224 18.6776 21.9573 18.6958 21.9931 18.7124C22.0288 18.7292 22.0654 18.7441 22.1024 18.7576C22.1395 18.7708 22.1771 18.7826 22.2153 18.7925C22.2536 18.8024 22.292 18.8104 22.3309 18.8168C22.3698 18.8232 22.4091 18.8277 22.4483 18.8304C22.4877 18.8331 22.5271 18.8341 22.5666 18.8332C22.606 18.8324 22.6452 18.8297 22.6845 18.8252C22.7236 18.8206 22.7625 18.8144 22.8011 18.8064C22.8397 18.7983 22.8779 18.7884 22.9156 18.777C22.9532 18.7655 22.9903 18.7522 23.0268 18.7371C23.0634 18.7222 23.099 18.7056 23.134 18.6873C23.1689 18.6692 23.203 18.6492 23.2362 18.6279C23.2692 18.6066 23.3014 18.5836 23.3325 18.5593C23.3635 18.535 23.3934 18.5093 23.422 18.4823C23.4507 18.4551 23.4781 18.4268 23.5041 18.3973C23.5302 18.3677 23.5549 18.337 23.5782 18.3052C23.6014 18.2733 23.6232 18.2404 23.6433 18.2065C23.6636 18.1727 23.6822 18.1381 23.6993 18.1025C23.7163 18.067 23.7317 18.0306 23.7455 17.9937C23.7592 17.9566 23.7711 17.9192 23.7813 17.8811C23.7917 17.843 23.8001 17.8045 23.8068 17.7657C23.8137 17.7268 23.8186 17.6877 23.8218 17.6485C23.8248 17.609 23.8261 17.5698 23.8258 17.5304C23.8253 17.491 23.8229 17.4515 23.8189 17.4123C23.8147 17.373 23.8089 17.3341 23.8013 17.2955C23.7936 17.2568 23.7842 17.2185 23.773 17.1808C23.7617 17.1429 23.749 17.1057 23.7344 17.0691C23.7196 17.0324 23.7035 16.9965 23.6856 16.9614C23.6676 16.9262 23.6482 16.892 23.6272 16.8586C23.6061 16.8254 23.5836 16.793 23.5596 16.7616C23.5356 16.7304 23.5101 16.7002 23.4834 16.6714C23.4566 16.6424 23.4286 16.6147 23.3992 16.5883C23.3699 16.562 23.3394 16.537 23.3078 16.5135C23.2761 16.4899 23.2436 16.4679 23.2099 16.4473C23.1763 16.4266 23.1418 16.4077 23.1064 16.3902C23.071 16.373 23.0349 16.3572 22.998 16.3431C22.9613 16.329 22.9239 16.3166 22.8858 16.306C22.8479 16.2953 22.8095 16.2864 22.7707 16.2794C22.732 16.2721 22.6929 16.2668 22.6536 16.2633C22.6144 16.2597 22.575 16.2581 22.5355 16.2581Z" fill="#5D7285"/>
<path d="M30.6579 12.9198C30.576 12.9184 30.4949 12.9105 30.4142 12.8963C30.3337 12.8819 30.2547 12.8614 30.1773 12.8344C30.1 12.8075 30.0254 12.7747 29.9532 12.7359C29.8811 12.697 29.8127 12.6529 29.7476 12.6031C29.6825 12.5534 29.6218 12.4989 29.5654 12.4395C29.5092 12.3801 29.4579 12.3166 29.4116 12.2491C29.3653 12.1815 29.3247 12.1108 29.2898 12.0368C29.2547 11.9626 29.2259 11.8863 29.2031 11.8078C28.9642 11.0568 28.6631 10.3319 28.2996 9.63271C28.26 9.56092 28.2263 9.48644 28.1986 9.40928C28.1708 9.33212 28.1493 9.25311 28.1342 9.1726C28.1191 9.09191 28.1104 9.01073 28.1082 8.9287C28.1061 8.84667 28.1102 8.76515 28.1212 8.6838C28.1319 8.60244 28.1492 8.5226 28.1726 8.44393C28.1963 8.36542 28.226 8.28927 28.2616 8.21546C28.2973 8.14166 28.3387 8.07104 28.3857 8.00377C28.4326 7.93651 28.4845 7.87344 28.5415 7.81456L29.2804 7.07566C28.9916 6.64692 28.6829 6.2331 28.3541 5.83404C28.0255 5.43498 27.6785 5.0527 27.3128 4.68719C26.9473 4.32169 26.565 3.97446 26.1661 3.64586C25.7671 3.31708 25.3531 3.00844 24.9243 2.71959L24.1854 3.45849C24.1266 3.51552 24.0635 3.56752 23.9962 3.61432C23.929 3.66129 23.8583 3.70272 23.7845 3.73845C23.7107 3.77401 23.6346 3.8037 23.5561 3.82735C23.4774 3.85084 23.3976 3.86811 23.3162 3.87885C23.235 3.88975 23.1533 3.89395 23.0713 3.89177C22.9893 3.88958 22.9081 3.88086 22.8274 3.86577C22.7469 3.85067 22.6681 3.8292 22.5909 3.80152C22.5136 3.77368 22.4391 3.74013 22.3673 3.70054C21.6681 3.33704 20.9432 3.03578 20.1922 2.79692C20.1137 2.77411 20.0374 2.74525 19.9634 2.7102C19.8892 2.67531 19.8185 2.63471 19.751 2.58842C19.6834 2.54212 19.62 2.49096 19.5605 2.4346C19.5011 2.37824 19.4466 2.31751 19.3969 2.25243C19.3473 2.18735 19.303 2.11891 19.2641 2.04678C19.2253 1.97465 19.1925 1.90001 19.1656 1.82268C19.1386 1.74535 19.1181 1.66634 19.1037 1.58583C19.0895 1.50514 19.0816 1.42396 19.0802 1.3421V0.303109C18.573 0.202296 18.062 0.126645 17.5476 0.0759868C17.033 0.0253289 16.5171 0 16 0C15.4829 0 14.967 0.0253289 14.4524 0.0759868C13.938 0.126645 13.427 0.202296 12.9198 0.303109V1.3421C12.9184 1.42396 12.9105 1.50514 12.8963 1.58583C12.8819 1.66634 12.8614 1.74535 12.8344 1.82268C12.8075 1.90001 12.7747 1.97465 12.7359 2.04678C12.697 2.11891 12.6527 2.18735 12.6031 2.25243C12.5534 2.31751 12.4987 2.37824 12.4394 2.4346C12.38 2.49096 12.3166 2.54212 12.249 2.58842C12.1815 2.63471 12.1108 2.67531 12.0366 2.7102C11.9626 2.74525 11.8863 2.77411 11.8078 2.79692C11.0568 3.03578 10.3319 3.33704 9.63271 3.70054C9.56092 3.74013 9.48644 3.77368 9.40911 3.80152C9.33195 3.8292 9.25311 3.85067 9.1726 3.86577C9.09191 3.88086 9.01056 3.88958 8.9287 3.89177C8.84667 3.89395 8.76498 3.88975 8.6838 3.87885C8.60244 3.86811 8.5226 3.85084 8.44393 3.82735C8.36542 3.8037 8.28927 3.77401 8.21546 3.73845C8.14166 3.70272 8.07104 3.66129 8.00377 3.61432C7.93651 3.56752 7.87344 3.51552 7.81456 3.45849L7.07566 2.71959C6.64675 3.00844 6.23293 3.31708 5.83387 3.64586C5.43498 3.97446 5.0527 4.32169 4.68719 4.68719C4.32152 5.0527 3.97446 5.43498 3.64586 5.83404C3.31708 6.2331 3.00844 6.64692 2.71959 7.07566L3.45849 7.81456C3.51552 7.87344 3.56735 7.93651 3.61432 8.00377C3.66129 8.07104 3.70272 8.14166 3.73845 8.21546C3.77401 8.28927 3.8037 8.36542 3.82735 8.44393C3.85084 8.5226 3.86811 8.60244 3.87885 8.6838C3.88975 8.76515 3.89395 8.84667 3.89177 8.9287C3.88958 9.01073 3.88086 9.09191 3.86577 9.1726C3.85067 9.25311 3.8292 9.33212 3.80135 9.40928C3.77368 9.48644 3.73996 9.56092 3.70037 9.63271C3.33688 10.3319 3.03578 11.0568 2.79692 11.8078C2.77411 11.8863 2.74525 11.9626 2.7102 12.0368C2.67531 12.1108 2.63471 12.1815 2.58842 12.2491C2.54212 12.3166 2.49096 12.3801 2.4346 12.4395C2.37824 12.4989 2.31751 12.5534 2.25243 12.6031C2.18735 12.6529 2.11891 12.697 2.04678 12.7359C1.97465 12.7747 1.90001 12.8075 1.82268 12.8344C1.74535 12.8614 1.66634 12.8819 1.58583 12.8963C1.50514 12.9105 1.42396 12.9184 1.3421 12.9198H0.303109C0.202296 13.427 0.126645 13.938 0.0759868 14.4524C0.0253289 14.967 0 15.4829 0 16C0 16.517 0.0253289 17.033 0.0759868 17.5474C0.126645 18.062 0.202296 18.573 0.303109 19.0801H1.3421C1.42396 19.0816 1.50514 19.0895 1.58583 19.1037C1.66634 19.118 1.74535 19.1386 1.82268 19.1656C1.90001 19.1925 1.97465 19.2253 2.04678 19.2641C2.11891 19.3028 2.18735 19.3471 2.25243 19.3969C2.31751 19.4466 2.37824 19.5011 2.4346 19.5605C2.49096 19.6199 2.54212 19.6834 2.58842 19.7509C2.63471 19.8185 2.67531 19.8892 2.7102 19.9632C2.74525 20.0374 2.77411 20.1137 2.79692 20.1922C3.03578 20.9432 3.33704 21.6681 3.70037 22.3673C3.73996 22.4391 3.77368 22.5136 3.80152 22.5907C3.8292 22.6679 3.85067 22.7467 3.86577 22.8274C3.88086 22.9079 3.88958 22.9893 3.89177 23.0713C3.89395 23.1533 3.88975 23.2348 3.87885 23.3162C3.86811 23.3976 3.85084 23.4774 3.82735 23.5559C3.8037 23.6346 3.77418 23.7107 3.73845 23.7845C3.70272 23.8583 3.66129 23.929 3.61449 23.9962C3.56752 24.0633 3.51552 24.1266 3.45849 24.1854L2.71959 24.9243C3.00844 25.3531 3.31708 25.7669 3.64586 26.166C3.97446 26.565 4.32152 26.9473 4.68719 27.3128C5.0527 27.6783 5.43498 28.0255 5.83387 28.3541C6.23293 28.6829 6.64692 28.9916 7.07566 29.2804L7.81456 28.5415C7.87344 28.4845 7.93651 28.4325 8.00377 28.3855C8.07104 28.3385 8.14166 28.2973 8.21546 28.2616C8.28927 28.2258 8.36542 28.1963 8.44393 28.1726C8.5226 28.1492 8.60244 28.1319 8.6838 28.1212C8.76498 28.1102 8.84667 28.1061 8.9287 28.1082C9.01073 28.1104 9.09191 28.1191 9.1726 28.1342C9.25311 28.1493 9.33195 28.1708 9.40911 28.1985C9.48644 28.2263 9.56092 28.2599 9.63271 28.2995C10.3319 28.663 11.0568 28.9642 11.8078 29.2031C11.8863 29.2259 11.9626 29.2547 12.0366 29.2896C12.1108 29.3247 12.1815 29.3653 12.249 29.4116C12.3166 29.4579 12.38 29.509 12.4394 29.5654C12.4987 29.6218 12.5534 29.6825 12.6031 29.7476C12.6527 29.8127 12.697 29.8811 12.7359 29.9532C12.7747 30.0254 12.8075 30.1 12.8344 30.1773C12.8614 30.2547 12.8819 30.3337 12.8963 30.4142C12.9105 30.4949 12.9184 30.576 12.9198 30.6579V31.6969C13.427 31.7977 13.938 31.8734 14.4524 31.924C14.967 31.9747 15.4829 32 16 32C16.5171 32 17.033 31.9747 17.5476 31.924C18.062 31.8734 18.573 31.7977 19.0802 31.6969V30.6579C19.0816 30.576 19.0895 30.4949 19.1037 30.4142C19.1181 30.3337 19.1386 30.2547 19.1656 30.1773C19.1925 30.1 19.2253 30.0254 19.2641 29.9532C19.303 29.8811 19.3473 29.8127 19.3969 29.7476C19.4466 29.6825 19.5013 29.6218 19.5606 29.5654C19.62 29.509 19.6834 29.4579 19.751 29.4116C19.8185 29.3653 19.8892 29.3247 19.9634 29.2896C20.0374 29.2547 20.1137 29.2259 20.1922 29.2031C20.9432 28.9642 21.6681 28.663 22.3673 28.2995C22.4391 28.2599 22.5136 28.2263 22.5907 28.1985C22.6681 28.1708 22.7469 28.1493 22.8274 28.1342C22.9081 28.1191 22.9893 28.1104 23.0713 28.1082C23.1533 28.1061 23.235 28.1102 23.3162 28.1212C23.3976 28.1319 23.4774 28.1492 23.5561 28.1726C23.6346 28.1963 23.7107 28.2258 23.7845 28.2616C23.8583 28.2973 23.929 28.3385 23.9962 28.3855C24.0635 28.4325 24.1266 28.4845 24.1854 28.5415L24.9243 29.2804C25.3531 28.9916 25.7671 28.6829 26.1661 28.3541C26.565 28.0255 26.9473 27.6783 27.3128 27.3128C27.6785 26.9473 28.0255 26.565 28.3541 26.166C28.6829 25.7669 28.9916 25.3531 29.2804 24.9243L28.5415 24.1854C28.4845 24.1266 28.4326 24.0633 28.3857 23.9962C28.3387 23.929 28.2973 23.8583 28.2616 23.7845C28.226 23.7107 28.1963 23.6346 28.1726 23.5559C28.1492 23.4774 28.1319 23.3976 28.1212 23.3162C28.1102 23.2348 28.1061 23.1533 28.1082 23.0713C28.1104 22.9893 28.1191 22.9079 28.1342 22.8274C28.1493 22.7467 28.1708 22.6679 28.1986 22.5907C28.2263 22.5136 28.26 22.4391 28.2996 22.3673C28.6631 21.6681 28.9642 20.9432 29.2031 20.1922C29.2259 20.1137 29.2547 20.0374 29.2898 19.9632C29.3247 19.8892 29.3653 19.8185 29.4116 19.751C29.4579 19.6834 29.509 19.6199 29.5654 19.5605C29.6218 19.5011 29.6825 19.4466 29.7476 19.3969C29.8127 19.3471 29.8811 19.303 29.9532 19.2641C30.0254 19.2253 30.1 19.1925 30.1773 19.1656C30.2547 19.1386 30.3337 19.1181 30.4142 19.1037C30.4949 19.0895 30.576 19.0816 30.6579 19.0802H31.6969C31.7977 18.573 31.8734 18.062 31.924 17.5476C31.9747 17.033 32 16.5171 32 16C32 15.4829 31.9747 14.967 31.924 14.4526C31.8734 13.938 31.7977 13.427 31.6969 12.9199L30.6579 12.9198ZM16 27.1999C15.8167 27.1999 15.6335 27.1954 15.4505 27.1865C15.2673 27.1774 15.0846 27.164 14.9021 27.1461C14.7198 27.1281 14.538 27.1056 14.3566 27.0788C14.1753 27.0518 13.9948 27.0204 13.815 26.9847C13.6352 26.949 13.4564 26.9089 13.2786 26.8643C13.1008 26.8198 12.9243 26.7708 12.7488 26.7177C12.5734 26.6645 12.3994 26.607 12.2268 26.5452C12.0542 26.4835 11.8833 26.4176 11.714 26.3475C11.5446 26.2773 11.3771 26.203 11.2113 26.1247C11.0458 26.0462 10.882 25.9638 10.7203 25.8774C10.5586 25.7911 10.3993 25.7008 10.2421 25.6065C10.0848 25.5123 9.93012 25.4143 9.77764 25.3125C9.62516 25.2105 9.47537 25.105 9.32826 24.996C9.18098 24.8868 9.03656 24.774 8.89482 24.6576C8.75307 24.5414 8.61435 24.4218 8.47865 24.2987C8.34278 24.1755 8.2101 24.0492 8.08043 23.9196C7.95077 23.7899 7.82446 23.6572 7.70134 23.5214C7.57821 23.3856 7.45862 23.2469 7.34237 23.1052C7.22596 22.9634 7.11324 22.819 7.00404 22.6717C6.895 22.5246 6.78933 22.3748 6.68751 22.2224C6.58569 22.0699 6.48773 21.9151 6.39346 21.7579C6.29919 21.6007 6.20894 21.4412 6.12256 21.2797C6.03617 21.118 5.95381 20.9542 5.87531 20.7887C5.79697 20.6229 5.72266 20.4554 5.65255 20.286C5.58243 20.1167 5.51651 19.9458 5.45478 19.7732C5.39305 19.6006 5.33551 19.4266 5.28234 19.2512C5.22917 19.0757 5.18019 18.8992 5.13573 18.7214C5.09112 18.5436 5.05103 18.3648 5.0153 18.185C4.97957 18.0052 4.9482 17.8247 4.92119 17.6434C4.89435 17.462 4.87188 17.2802 4.85393 17.0979C4.83598 16.9154 4.82256 16.7327 4.8135 16.5495C4.80461 16.3665 4.80008 16.1833 4.80008 16C4.80008 15.8167 4.80461 15.6335 4.8135 15.4505C4.82256 15.2673 4.83598 15.0846 4.85393 14.9021C4.87188 14.7198 4.89435 14.538 4.92119 14.3566C4.9482 14.1753 4.97957 13.9948 5.0153 13.815C5.05103 13.6352 5.09112 13.4564 5.13573 13.2786C5.18019 13.1008 5.22917 12.9243 5.28234 12.7488C5.33551 12.5734 5.39305 12.3994 5.45478 12.2268C5.51651 12.0542 5.58243 11.8833 5.65255 11.714C5.72266 11.5446 5.79697 11.3771 5.87531 11.2113C5.95381 11.0458 6.03617 10.882 6.12256 10.7203C6.20894 10.5586 6.29919 10.3993 6.39346 10.2421C6.48773 10.0848 6.58569 9.93012 6.68751 9.77764C6.78933 9.62516 6.89484 9.47537 7.00404 9.32826C7.11324 9.18098 7.22596 9.03656 7.34237 8.89482C7.45862 8.75307 7.57821 8.61435 7.70134 8.47865C7.82446 8.34278 7.95077 8.2101 8.08043 8.08043C8.2101 7.95077 8.34278 7.82446 8.47865 7.70134C8.61435 7.57821 8.75307 7.45862 8.89482 7.34237C9.03656 7.22596 9.18098 7.11324 9.32826 7.00404C9.47537 6.895 9.62516 6.78933 9.77764 6.68751C9.93012 6.58569 10.0848 6.48773 10.2421 6.39346C10.3993 6.29919 10.5586 6.20894 10.7203 6.12256C10.882 6.03617 11.0458 5.95381 11.2113 5.87531C11.3771 5.79697 11.5446 5.72266 11.714 5.65255C11.8833 5.58243 12.0542 5.51651 12.2268 5.45478C12.3994 5.39305 12.5734 5.33551 12.7488 5.28234C12.9243 5.22917 13.1008 5.18019 13.2786 5.13573C13.4564 5.09112 13.6352 5.05103 13.815 5.0153C13.9948 4.97957 14.1753 4.9482 14.3566 4.92119C14.538 4.89435 14.7198 4.87188 14.9021 4.85393C15.0846 4.83598 15.2673 4.82256 15.4505 4.8135C15.6335 4.80461 15.8167 4.80008 16 4.80008C16.1833 4.80008 16.3665 4.80461 16.5495 4.8135C16.7327 4.82256 16.9154 4.83598 17.0979 4.85393C17.2802 4.87188 17.462 4.89435 17.6434 4.92119C17.8247 4.9482 18.0052 4.97957 18.185 5.0153C18.3648 5.05103 18.5436 5.09112 18.7214 5.13573C18.8992 5.18019 19.0757 5.22917 19.2512 5.28234C19.4266 5.33551 19.6006 5.39305 19.7732 5.45478C19.9458 5.51651 20.1167 5.58243 20.286 5.65255C20.4554 5.72266 20.6229 5.79697 20.7887 5.87531C20.9542 5.95381 21.118 6.03617 21.2797 6.12256C21.4414 6.20894 21.6007 6.29919 21.7579 6.39346C21.9151 6.48773 22.0699 6.58569 22.2224 6.68751C22.3748 6.78933 22.5246 6.89484 22.6717 7.00404C22.819 7.11324 22.9634 7.22596 23.1052 7.34237C23.2469 7.45862 23.3856 7.57821 23.5214 7.70134C23.6572 7.82446 23.7899 7.95077 23.9196 8.08043C24.0492 8.2101 24.1755 8.34278 24.2987 8.47865C24.4218 8.61435 24.5414 8.75307 24.6576 8.89482C24.774 9.03656 24.8868 9.18098 24.996 9.32826C25.105 9.47537 25.2105 9.62516 25.3125 9.77764C25.4143 9.93012 25.5123 10.0848 25.6065 10.2421C25.7008 10.3993 25.7911 10.5588 25.8774 10.7203C25.9638 10.882 26.0462 11.0458 26.1247 11.2113C26.203 11.3771 26.2773 11.5446 26.3475 11.714C26.4176 11.8833 26.4835 12.0542 26.5452 12.2268C26.607 12.3994 26.6645 12.5734 26.7177 12.7488C26.7708 12.9243 26.8198 13.1008 26.8643 13.2786C26.9089 13.4564 26.949 13.6352 26.9847 13.815C27.0204 13.9948 27.0518 14.1753 27.0788 14.3566C27.1056 14.538 27.1281 14.7198 27.1461 14.9021C27.164 15.0846 27.1774 15.2673 27.1865 15.4505C27.1954 15.6335 27.1999 15.8167 27.1999 16C27.1999 16.1833 27.1954 16.3665 27.1865 16.5495C27.1774 16.7327 27.164 16.9154 27.1461 17.0979C27.1281 17.2802 27.1056 17.462 27.0788 17.6434C27.0518 17.8247 27.0204 18.0052 26.9847 18.185C26.949 18.3648 26.9089 18.5436 26.8643 18.7214C26.8198 18.8992 26.7708 19.0757 26.7177 19.2512C26.6645 19.4266 26.607 19.6006 26.5452 19.7732C26.4835 19.9458 26.4176 20.1167 26.3475 20.286C26.2773 20.4554 26.203 20.6229 26.1247 20.7887C26.0462 20.9542 25.9638 21.118 25.8774 21.2797C25.7911 21.4412 25.7008 21.6007 25.6065 21.7579C25.5123 21.9151 25.4143 22.0699 25.3125 22.2224C25.2105 22.3748 25.105 22.5246 24.996 22.6717C24.8868 22.819 24.774 22.9634 24.6576 23.1052C24.5414 23.2469 24.4218 23.3856 24.2987 23.5214C24.1755 23.6572 24.0492 23.7899 23.9196 23.9196C23.7899 24.0492 23.6572 24.1755 23.5214 24.2987C23.3856 24.4218 23.2469 24.5414 23.1052 24.6576C22.9634 24.774 22.819 24.8868 22.6717 24.996C22.5246 25.105 22.3748 25.2105 22.2224 25.3125C22.0699 25.4143 21.9151 25.5123 21.7579 25.6065C21.6007 25.7008 21.4412 25.7911 21.2797 25.8774C21.118 25.9638 20.9542 26.0462 20.7887 26.1247C20.6229 26.203 20.4554 26.2773 20.286 26.3475C20.1167 26.4176 19.9458 26.4835 19.7732 26.5452C19.6006 26.607 19.4266 26.6645 19.2512 26.7177C19.0757 26.7708 18.8992 26.8198 18.7214 26.8643C18.5436 26.9089 18.3648 26.949 18.185 26.9847C18.0052 27.0204 17.8247 27.0518 17.6434 27.0788C17.462 27.1056 17.2802 27.1281 17.0979 27.1461C16.9154 27.164 16.7327 27.1774 16.5495 27.1865C16.3665 27.1954 16.1833 27.1999 16 27.1999Z" fill="#5D7285"/>
<path d="M16.0612 14.3215H17.0934V15.3538H16.0612V14.3215Z" fill="#5D7285"/>
<path d="M17.0201 16.3289H18.0524V17.3611H17.0201V16.3289Z" fill="#5D7285"/>
<path d="M12.5594 8.77428C10.8966 8.77428 9.54859 9.92969 9.54859 11.355C9.54859 11.41 9.5595 11.4623 9.56453 11.5162C9.61401 11.5326 9.66266 11.5514 9.71063 11.5722C9.75844 11.593 9.8054 11.6158 9.8512 11.6408C9.89716 11.6658 9.94178 11.6926 9.98522 11.7215C10.0288 11.7505 10.0709 11.7812 10.1117 11.8138C10.1525 11.8465 10.1917 11.8807 10.2295 11.9167C10.2672 11.9528 10.3034 11.9904 10.3378 12.0296C10.3722 12.0689 10.4049 12.1097 10.4358 12.1518C10.4666 12.1939 10.4957 12.2371 10.5227 12.2819C10.5497 12.3265 10.5747 12.3723 10.5978 12.4191C10.6208 12.4659 10.6416 12.5137 10.6605 12.5626C10.6793 12.6112 10.6959 12.6607 10.7104 12.7108C10.7248 12.761 10.737 12.8116 10.7471 12.863C10.757 12.9141 10.7647 12.9658 10.7703 13.0176C10.7756 13.0696 10.7788 13.1216 10.7796 13.1738C10.7805 13.2261 10.7791 13.2781 10.7753 13.3303C10.7716 13.3823 10.7656 13.4341 10.7573 13.4856L10.1654 13.3749C10.1751 13.3117 10.1795 13.2479 10.1788 13.184C10.178 13.12 10.1718 13.0566 10.1605 12.9936C10.1493 12.9306 10.1328 12.869 10.1114 12.8086C10.0899 12.7484 10.0636 12.6902 10.0325 12.6343C10.0013 12.5785 9.96593 12.5253 9.92601 12.4753C9.88626 12.4252 9.84248 12.3787 9.795 12.3359C9.74753 12.293 9.69688 12.2544 9.64286 12.2199C9.58902 12.1853 9.53266 12.1554 9.47378 12.1303C9.41323 12.1513 9.35351 12.1744 9.29463 12.1999C9.23592 12.2252 9.17805 12.2529 9.12119 12.2826C9.06449 12.3123 9.0088 12.3442 8.95445 12.378C8.90011 12.4119 8.84693 12.4478 8.79527 12.4856C8.74343 12.5235 8.69328 12.5632 8.64447 12.6048C8.59565 12.6464 8.54852 12.6897 8.50306 12.7348C8.45744 12.7799 8.41366 12.8267 8.37155 12.8751C8.32962 12.9235 8.28936 12.9734 8.25111 13.0247C8.2127 13.0762 8.1763 13.1288 8.14191 13.1829C8.10753 13.237 8.07532 13.2924 8.04496 13.3488C8.01477 13.4053 7.98659 13.4628 7.96059 13.5215C7.93475 13.5801 7.91094 13.6396 7.88946 13.7C7.86783 13.7604 7.8487 13.8215 7.83159 13.8832C7.81465 13.9451 7.80006 14.0075 7.78781 14.0704C7.7754 14.1333 7.7655 14.1965 7.75779 14.2601C7.75024 14.3238 7.74504 14.3876 7.74219 14.4517C7.74353 14.5379 7.74957 14.6236 7.76014 14.7091C7.7707 14.7947 7.7858 14.8794 7.80559 14.9633C7.82522 15.0471 7.84937 15.1297 7.87806 15.2109C7.90674 15.2922 7.93962 15.3717 7.97669 15.4494C8.01393 15.527 8.05519 15.6027 8.10048 15.6758C8.14577 15.7491 8.19492 15.8198 8.24793 15.8879C8.30077 15.9558 8.35729 16.0207 8.41718 16.0826C8.47706 16.1445 8.54013 16.203 8.60639 16.2581C8.54013 16.3132 8.47706 16.3718 8.41718 16.4337C8.35729 16.4956 8.30077 16.5605 8.24793 16.6284C8.19492 16.6964 8.14577 16.767 8.10048 16.8403C8.05519 16.9136 8.01393 16.9891 7.97669 17.0667C7.93962 17.1446 7.90674 17.2241 7.87806 17.3053C7.84937 17.3866 7.82522 17.4692 7.80559 17.553C7.7858 17.6369 7.7707 17.7216 7.76014 17.8072C7.74957 17.8925 7.74353 17.9784 7.74219 18.0646C7.74705 18.1874 7.76064 18.3092 7.78295 18.43C7.80526 18.5509 7.83612 18.6695 7.87571 18.7859C7.91513 18.9023 7.96277 19.0152 8.01846 19.1248C8.07415 19.2343 8.13755 19.3393 8.20834 19.4398C8.27929 19.5401 8.35696 19.6349 8.4415 19.7241C8.52604 19.8133 8.61662 19.896 8.71307 19.9722C8.80953 20.0483 8.91101 20.1171 9.01736 20.1787C9.12387 20.2401 9.23408 20.2937 9.34814 20.3394C9.40786 20.3087 9.46455 20.2731 9.51823 20.2327C9.57191 20.1923 9.62173 20.1476 9.66769 20.0987C9.71365 20.0497 9.75508 19.9972 9.79199 19.9412C9.82889 19.8851 9.86076 19.8263 9.8876 19.7647C9.91444 19.7031 9.93591 19.6397 9.95184 19.5745C9.96778 19.5092 9.97801 19.4431 9.98271 19.3762C9.98724 19.3091 9.98606 19.2422 9.97918 19.1754C9.97231 19.1087 9.95973 19.0429 9.94144 18.9783L10.5151 18.795C10.5297 18.8455 10.5421 18.8963 10.5524 18.9478C10.5624 18.9993 10.5703 19.0511 10.576 19.1031C10.5815 19.1553 10.5847 19.2076 10.5857 19.2601C10.5866 19.3126 10.5852 19.365 10.5815 19.4173C10.5779 19.4696 10.572 19.5216 10.5636 19.5735C10.5554 19.6253 10.5448 19.6766 10.5319 19.7275C10.5191 19.7783 10.504 19.8284 10.4868 19.8781C10.4695 19.9276 10.45 19.9762 10.4284 20.024C10.4068 20.0718 10.3831 20.1186 10.3574 20.1643C10.3318 20.21 10.3041 20.2545 10.2744 20.2978C10.2447 20.3411 10.2132 20.383 10.1798 20.4234C10.1464 20.4638 10.1114 20.5028 10.0746 20.5402C10.0377 20.5776 9.99931 20.6131 9.95939 20.6472C9.91947 20.6812 9.87804 20.7133 9.83526 20.7436C9.79232 20.774 9.74837 20.8023 9.70291 20.8287C9.65762 20.855 9.61133 20.8795 9.56386 20.9018C9.71415 22.2065 10.9977 23.2259 12.5594 23.2259C12.6723 23.2275 12.785 23.2233 12.8974 23.2131C13.0098 23.2029 13.1213 23.1868 13.232 23.1646C13.3429 23.1425 13.4521 23.1147 13.5598 23.0809C13.6675 23.0471 13.7732 23.0078 13.8767 22.9628C13.9803 22.9177 14.0811 22.8674 14.1793 22.8117C14.2776 22.756 14.3725 22.6951 14.4643 22.6294C14.5558 22.5635 14.6439 22.493 14.7281 22.4179C14.8123 22.3425 14.8923 22.2632 14.968 22.1795V15.5817C14.8791 15.5817 14.7908 15.5886 14.7029 15.6024C14.6152 15.6161 14.529 15.6366 14.4443 15.6638C14.3597 15.6911 14.2779 15.7248 14.1985 15.7649C14.1192 15.805 14.0434 15.851 13.9714 15.903C13.8993 15.955 13.8317 16.0122 13.7685 16.0747C13.7054 16.1373 13.6475 16.2044 13.5948 16.276C13.5423 16.3476 13.4955 16.423 13.4548 16.502C13.4139 16.5808 13.3795 16.6625 13.3515 16.7469L13.327 16.821L12.7555 16.6313L12.7801 16.5568C12.7991 16.4998 12.8202 16.4436 12.8435 16.3882C12.8669 16.3329 12.8923 16.2785 12.9199 16.2252C12.9475 16.1718 12.9771 16.1197 13.0088 16.0687C13.0405 16.0175 13.074 15.9679 13.1096 15.9194C13.1451 15.8711 13.1825 15.8241 13.2218 15.7787C13.2609 15.7332 13.3018 15.6893 13.3446 15.647C13.3872 15.6047 13.4315 15.5641 13.4773 15.5254C13.5231 15.4865 13.5704 15.4495 13.619 15.4145C13.6678 15.3793 13.7178 15.3462 13.7691 15.315C13.8205 15.2838 13.873 15.2546 13.9265 15.2275C13.9801 15.2005 14.0347 15.1755 14.0902 15.1526C14.1457 15.1298 14.2021 15.1092 14.2593 15.0907C14.3165 15.0723 14.3742 15.056 14.4327 15.0423C14.4911 15.0283 14.55 15.0168 14.6093 15.0074C14.6686 14.9982 14.7283 14.9911 14.7882 14.9866C14.848 14.9819 14.9079 14.9795 14.968 14.9797V9.82065C14.8923 9.73695 14.8123 9.65761 14.7281 9.58229C14.6439 9.50715 14.5558 9.43669 14.4643 9.37077C14.3725 9.30502 14.2776 9.24413 14.1793 9.18844C14.0811 9.13275 13.9803 9.08243 13.8767 9.0373C13.7732 8.99235 13.6675 8.95293 13.5598 8.91921C13.4521 8.8855 13.3429 8.85765 13.2322 8.83551C13.1213 8.81337 13.0098 8.79727 12.8974 8.78703C12.785 8.7768 12.6723 8.77261 12.5594 8.77428Z" fill="#5D7285"/>
</svg>
