<svg width="29" height="28" viewBox="0 0 29 28" fill="none" xmlns="http://www.w3.org/2000/svg">
<path d="M13.3236 0.666748C16.6337 0.666748 19.3333 3.32008 19.3333 6.58675V12.9734H11.1938C10.6104 12.9734 10.1492 13.4267 10.1492 14.0001C10.1492 14.5601 10.6104 15.0267 11.1938 15.0267H19.3333V21.4001C19.3333 24.6667 16.6337 27.3334 13.2965 27.3334H6.68988C3.36624 27.3334 0.666626 24.6801 0.666626 21.4134V6.60008C0.666626 3.32008 3.3798 0.666748 6.70345 0.666748H13.3236ZM22.7202 9.40035C23.1202 8.98701 23.7736 8.98702 24.1736 9.38702L28.0669 13.267C28.2669 13.467 28.3736 13.7203 28.3736 14.0003C28.3736 14.267 28.2669 14.5337 28.0669 14.7203L24.1736 18.6003C23.9736 18.8003 23.7069 18.907 23.4536 18.907C23.1869 18.907 22.9202 18.8003 22.7202 18.6003C22.3202 18.2003 22.3202 17.547 22.7202 17.147L24.8536 15.027H19.3336V12.9737H24.8536L22.7202 10.8537C22.3202 10.4537 22.3202 9.80035 22.7202 9.40035Z" fill="white"/>
</svg>
