<svg width="32" height="32" viewBox="0 0 32 32" fill="none" xmlns="http://www.w3.org/2000/svg">
<path d="M32 16C32 16.2618 31.9935 16.5235 31.9807 16.785C31.9678 17.0467 31.9487 17.3077 31.923 17.5683C31.8973 17.8288 31.8652 18.0887 31.8268 18.3477C31.7883 18.6067 31.7437 18.8647 31.6925 19.1215C31.6415 19.3783 31.5842 19.6337 31.5205 19.8877C31.4568 20.1417 31.387 20.394 31.311 20.6445C31.235 20.8952 31.1528 21.1437 31.0647 21.3902C30.9765 21.6368 30.8823 21.881 30.782 22.123C30.6818 22.3648 30.5758 22.6042 30.4638 22.8408C30.3518 23.0777 30.2342 23.3113 30.1107 23.5423C29.9873 23.7733 29.8583 24.001 29.7237 24.2257C29.589 24.4502 29.449 24.6713 29.3035 24.8892C29.158 25.1068 29.0073 25.3208 28.8513 25.5312C28.6953 25.7415 28.5343 25.9478 28.3682 26.1503C28.202 26.3527 28.031 26.551 27.8552 26.745C27.6793 26.939 27.4988 27.1285 27.3137 27.3137C27.1285 27.4988 26.939 27.6793 26.745 27.8552C26.551 28.031 26.3527 28.202 26.1503 28.3682C25.9478 28.5343 25.7415 28.6953 25.5312 28.8513C25.3208 29.0073 25.1068 29.158 24.8892 29.3035C24.6713 29.449 24.4502 29.589 24.2257 29.7237C24.001 29.8583 23.7733 29.9873 23.5423 30.1107C23.3113 30.2342 23.0777 30.3518 22.8408 30.4638C22.6042 30.5758 22.3648 30.6818 22.123 30.782C21.881 30.8823 21.6368 30.9765 21.3902 31.0647C21.1437 31.1528 20.8952 31.235 20.6445 31.311C20.394 31.387 20.1417 31.4568 19.8877 31.5205C19.6337 31.5842 19.3783 31.6415 19.1215 31.6925C18.8647 31.7437 18.6067 31.7883 18.3477 31.8268C18.0887 31.8652 17.8288 31.8973 17.5683 31.923C17.3077 31.9487 17.0467 31.9678 16.785 31.9807C16.5235 31.9935 16.2618 32 16 32C15.7382 32 15.4765 31.9935 15.215 31.9807C14.9533 31.9678 14.6923 31.9487 14.4317 31.923C14.1712 31.8973 13.9113 31.8652 13.6523 31.8268C13.3933 31.7883 13.1353 31.7437 12.8785 31.6925C12.6217 31.6415 12.3663 31.5842 12.1123 31.5205C11.8583 31.4568 11.606 31.387 11.3555 31.311C11.1048 31.235 10.8563 31.1528 10.6098 31.0647C10.3632 30.9765 10.119 30.8823 9.877 30.782C9.63517 30.6818 9.39583 30.5758 9.15917 30.4638C8.92233 30.3518 8.68867 30.2342 8.45767 30.1107C8.22667 29.9873 7.999 29.8583 7.77433 29.7237C7.54983 29.589 7.32867 29.449 7.11083 29.3035C6.89317 29.158 6.67917 29.0073 6.46883 28.8513C6.2585 28.6953 6.05217 28.5343 5.84967 28.3682C5.64733 28.202 5.449 28.031 5.255 27.8552C5.061 27.6793 4.8715 27.4988 4.68633 27.3137C4.50117 27.1285 4.32067 26.939 4.14483 26.745C3.969 26.551 3.798 26.3527 3.63183 26.1503C3.46567 25.9478 3.30467 25.7415 3.14867 25.5312C2.99267 25.3208 2.842 25.1068 2.6965 24.8892C2.551 24.6713 2.411 24.4502 2.27633 24.2257C2.14167 24.001 2.01267 23.7733 1.88933 23.5423C1.76583 23.3113 1.64817 23.0777 1.53617 22.8408C1.42417 22.6042 1.31817 22.3648 1.218 22.123C1.11767 21.881 1.0235 21.6368 0.935333 21.3902C0.847 21.1437 0.765 20.8952 0.689 20.6445C0.613 20.394 0.543167 20.1417 0.4795 19.8877C0.415833 19.6337 0.3585 19.3783 0.3075 19.1215C0.256333 18.8647 0.211667 18.6067 0.173167 18.3477C0.134833 18.0887 0.102667 17.8288 0.077 17.5683C0.0513333 17.3077 0.0321667 17.0467 0.0193333 16.785C0.00650001 16.5235 0 16.2618 0 16C0 15.7382 0.00650001 15.4765 0.0193333 15.215C0.0321667 14.9533 0.0513333 14.6923 0.077 14.4317C0.102667 14.1712 0.134833 13.9113 0.173167 13.6523C0.211667 13.3933 0.256333 13.1353 0.3075 12.8785C0.3585 12.6217 0.415833 12.3663 0.4795 12.1123C0.543167 11.8583 0.613 11.606 0.689 11.3555C0.765 11.1048 0.847 10.8563 0.935333 10.6098C1.0235 10.3632 1.11767 10.119 1.218 9.877C1.31817 9.63517 1.42417 9.39583 1.53617 9.15917C1.64817 8.92233 1.76583 8.68867 1.88933 8.45767C2.01267 8.22667 2.14167 7.999 2.27633 7.77433C2.411 7.54983 2.551 7.32867 2.6965 7.11083C2.842 6.89317 2.99267 6.67917 3.14867 6.46883C3.30467 6.2585 3.46567 6.05217 3.63183 5.84967C3.798 5.64733 3.969 5.449 4.14483 5.255C4.32067 5.061 4.50117 4.8715 4.68633 4.68633C4.8715 4.50117 5.061 4.32067 5.255 4.14483C5.449 3.969 5.64733 3.798 5.84967 3.63183C6.05217 3.46567 6.2585 3.30467 6.46883 3.14867C6.67917 2.99267 6.89317 2.842 7.11083 2.6965C7.32867 2.551 7.54983 2.411 7.77433 2.27633C7.999 2.14167 8.22667 2.01267 8.45767 1.88933C8.68867 1.76583 8.92233 1.64817 9.15917 1.53617C9.39583 1.42417 9.63517 1.31817 9.877 1.218C10.119 1.11767 10.3632 1.0235 10.6098 0.935333C10.8563 0.847 11.1048 0.765 11.3555 0.689C11.606 0.613 11.8583 0.543167 12.1123 0.4795C12.3663 0.415833 12.6217 0.3585 12.8785 0.3075C13.1353 0.256333 13.3933 0.211667 13.6523 0.173167C13.9113 0.134833 14.1712 0.102667 14.4317 0.077C14.6923 0.0513333 14.9533 0.0321667 15.215 0.0193333C15.4765 0.00650001 15.7382 0 16 0C16.2618 0 16.5235 0.00650001 16.785 0.0193333C17.0467 0.0321667 17.3077 0.0513333 17.5683 0.077C17.8288 0.102667 18.0887 0.134833 18.3477 0.173167C18.6067 0.211667 18.8647 0.256333 19.1215 0.3075C19.3783 0.3585 19.6337 0.415833 19.8877 0.4795C20.1417 0.543167 20.394 0.613 20.6445 0.689C20.8952 0.765 21.1437 0.847 21.3902 0.935333C21.6368 1.0235 21.881 1.11767 22.123 1.218C22.3648 1.31817 22.6042 1.42417 22.8408 1.53617C23.0777 1.64817 23.3113 1.76583 23.5423 1.88933C23.7733 2.01267 24.001 2.14167 24.2257 2.27633C24.4502 2.411 24.6713 2.551 24.8892 2.6965C25.1068 2.842 25.3208 2.99267 25.5312 3.14867C25.7415 3.30467 25.9478 3.46567 26.1503 3.63183C26.3527 3.798 26.551 3.969 26.745 4.14483C26.939 4.32067 27.1285 4.50117 27.3137 4.68633C27.4988 4.8715 27.6793 5.061 27.8552 5.255C28.031 5.449 28.202 5.64733 28.3682 5.84967C28.5343 6.05217 28.6953 6.2585 28.8513 6.46883C29.0073 6.67917 29.158 6.89317 29.3035 7.11083C29.449 7.32867 29.589 7.54983 29.7237 7.77433C29.8583 7.999 29.9873 8.22667 30.1107 8.45767C30.2342 8.68867 30.3518 8.92233 30.4638 9.15917C30.5758 9.39583 30.6818 9.63517 30.782 9.877C30.8823 10.119 30.9765 10.3632 31.0647 10.6098C31.1528 10.8563 31.235 11.1048 31.311 11.3555C31.387 11.606 31.4568 11.8583 31.5205 12.1123C31.5842 12.3663 31.6415 12.6217 31.6925 12.8785C31.7437 13.1353 31.7883 13.3933 31.8268 13.6523C31.8652 13.9113 31.8973 14.1712 31.923 14.4317C31.9487 14.6923 31.9678 14.9533 31.9807 15.215C31.9935 15.4765 32 15.7382 32 16Z" fill="#5D7285"/>
<path fill-rule="evenodd" clip-rule="evenodd" d="M17.6323 24.6542C16.324 24.6542 14.3437 24.6542 12.8192 24.6542C12.7352 24.6542 12.6512 24.6182 12.6152 24.5342C12.5432 24.4262 12.5792 24.27 12.6992 24.21C12.9632 24.054 13.1073 23.886 13.1193 23.73C13.1553 23.3699 12.6392 22.9137 12.291 22.6137L12.111 22.4577C10.9707 21.4614 9.67451 20.3452 9.67451 19.1689C9.66235 18.6647 9.90251 18.1965 10.3707 17.7765C10.7667 17.4164 11.3188 17.0444 12.003 16.6722C12.255 16.5402 12.5432 16.4082 12.8432 16.276C13.7675 15.844 14.9197 15.3159 15.0038 14.6437C15.0518 14.2835 14.7757 13.8395 14.1755 13.3474C13.8395 13.0714 13.4313 12.7832 12.9993 12.4712C11.6068 11.4749 10.1665 10.4547 10.2865 9.29037C10.3587 8.57021 11.0068 7.94604 12.291 7.36987C12.327 7.35787 17.1043 7.32187 17.2603 7.35787C17.3323 7.38187 17.3923 7.42987 17.4283 7.48987C17.4763 7.62187 17.4283 7.75404 17.3083 7.81404C16.216 8.29404 15.6278 8.81021 15.5798 9.33837C15.4838 10.2265 16.8762 11.2109 18.1005 12.087C18.5327 12.3992 18.9407 12.6872 19.3008 12.9872C20.045 13.5874 20.3692 14.1515 20.297 14.7037C20.177 15.6399 18.9407 16.204 17.8605 16.7082C17.5603 16.8402 17.2843 16.9722 17.0563 17.1044C16.4082 17.4524 15.868 17.8005 15.5078 18.1365C15.1358 18.4607 14.9677 18.7967 14.9677 19.1569C14.9797 20.129 16.228 21.2214 17.2363 22.0855L17.4283 22.2535C17.8605 22.6377 18.4727 23.1659 18.4127 23.766C18.3887 24.102 18.1605 24.3902 17.7525 24.6182C17.7165 24.6422 17.6805 24.6542 17.6323 24.6542ZM13.8755 21.7015C13.7915 21.7015 13.7195 21.6655 13.6715 21.5934C12.4712 19.829 13.3593 17.7885 13.3953 17.7045C13.4553 17.5844 13.5993 17.5244 13.7195 17.5844C13.8395 17.6324 13.8875 17.7765 13.8395 17.8965C13.8275 17.9325 13.0233 19.781 14.0675 21.3294C14.1515 21.4374 14.1155 21.5934 14.0075 21.6655C13.9715 21.6895 13.9235 21.7015 13.8755 21.7015ZM16.7802 14.4637C16.6602 14.4637 16.5522 14.3677 16.5402 14.2475C16.3842 12.8192 14.3195 11.5709 14.2955 11.5589C14.1875 11.4989 14.1515 11.3429 14.2115 11.2349C14.2835 11.1149 14.4277 11.0789 14.5477 11.1509C14.6317 11.1989 16.8402 12.5312 17.0203 14.1875C17.0323 14.3195 16.9362 14.4397 16.8042 14.4637C16.7922 14.4637 16.7922 14.4637 16.7802 14.4637Z" fill="white"/>
<path fill-rule="evenodd" clip-rule="evenodd" d="M9.69853 10.6226H6.00153C5.90553 10.6226 5.82153 10.5626 5.78553 10.4786C5.74953 10.3826 5.76153 10.2864 5.83353 10.2144L7.68203 8.3661C7.76603 8.28194 7.93403 8.28194 8.01803 8.3661L9.84253 10.1904C9.90253 10.2384 9.93853 10.3104 9.93853 10.3826C9.93853 10.5146 9.83053 10.6226 9.69853 10.6226Z" fill="white"/>
<path fill-rule="evenodd" clip-rule="evenodd" d="M9.69853 11.7869H6.00153C5.90553 11.7869 5.82153 11.7269 5.78553 11.6308C5.74953 11.5468 5.76153 11.4388 5.83353 11.3788L6.18153 11.0308H9.51836L9.84253 11.3548C9.90253 11.3908 9.93853 11.4628 9.93853 11.5468C9.93853 11.6789 9.83053 11.7869 9.69853 11.7869Z" fill="white"/>
<path fill-rule="evenodd" clip-rule="evenodd" d="M9.69853 12.9393H6.00153C5.90553 12.9393 5.82153 12.8793 5.78553 12.7953C5.74953 12.7113 5.76153 12.6033 5.83353 12.5313L6.18153 12.1831H9.51836L9.84253 12.5073C9.90253 12.5553 9.93853 12.6273 9.93853 12.6993C9.93853 12.8313 9.83053 12.9393 9.69853 12.9393Z" fill="white"/>
<path fill-rule="evenodd" clip-rule="evenodd" d="M7.85003 15.5079C7.71803 15.5079 7.60986 15.3999 7.60986 15.2679V12.6992C7.60986 12.5672 7.71803 12.4592 7.85003 12.4592C7.98203 12.4592 8.09003 12.5672 8.09003 12.6992V15.2679C8.09003 15.3999 7.98203 15.5079 7.85003 15.5079Z" fill="white"/>
<path fill-rule="evenodd" clip-rule="evenodd" d="M18.6167 20.3331C18.5927 20.3331 18.5807 20.3331 18.5567 20.3331C18.3285 20.309 18.1125 20.165 17.9205 19.913C17.8005 19.781 17.6925 19.709 17.5844 19.709C17.3684 19.709 17.1524 19.937 17.0804 20.021C17.0084 20.129 16.8522 20.141 16.7442 20.069C16.6482 19.985 16.6242 19.829 16.7082 19.733C16.7442 19.673 17.0924 19.2288 17.5724 19.2288C17.5844 19.2288 17.5844 19.2288 17.5844 19.2288C17.7645 19.2288 18.0405 19.3008 18.2925 19.6128C18.3767 19.721 18.4847 19.841 18.6047 19.853C18.7367 19.865 18.9047 19.709 19.0729 19.5768C19.3009 19.3728 19.5649 19.1448 19.901 19.1808C20.129 19.2048 20.3332 19.3368 20.5252 19.5888C20.6452 19.733 20.7652 19.817 20.8732 19.817C20.8732 19.817 20.8732 19.817 20.8852 19.817C21.0534 19.805 21.2214 19.6248 21.2574 19.5768C21.2934 19.5288 21.6534 19.0848 22.1335 19.0728C22.3135 19.0728 22.5897 19.1448 22.8417 19.4568C22.9257 19.5648 23.0459 19.685 23.1539 19.697C23.2859 19.709 23.4659 19.5648 23.6219 19.4208C23.862 19.2168 24.114 18.9886 24.4502 19.0248C24.6782 19.0488 24.8822 19.1808 25.0864 19.4328C25.2064 19.5888 25.3264 19.661 25.4344 19.661C25.6024 19.661 25.7705 19.4688 25.8065 19.4208C25.8905 19.3128 26.0345 19.2888 26.1425 19.3728C26.2505 19.4448 26.2745 19.6008 26.2025 19.709C26.1665 19.745 25.8785 20.129 25.4464 20.141C25.1704 20.141 24.9302 20.009 24.7022 19.733C24.6302 19.6368 24.5102 19.5168 24.4022 19.5048C24.27 19.4928 24.102 19.6368 23.934 19.781C23.706 19.985 23.4419 20.201 23.1059 20.177C22.8777 20.153 22.6737 20.021 22.4697 19.757C22.3617 19.6248 22.2535 19.5528 22.1455 19.5528C22.1335 19.5528 22.1335 19.5528 22.1335 19.5528C21.9295 19.5528 21.7015 19.781 21.6414 19.865C21.6174 19.901 21.3294 20.285 20.8852 20.297C20.6212 20.309 20.3692 20.165 20.153 19.889C20.069 19.793 19.961 19.673 19.853 19.661C19.721 19.6488 19.5529 19.793 19.3849 19.937C19.1689 20.117 18.9287 20.3331 18.6167 20.3331Z" fill="white"/>
<path fill-rule="evenodd" clip-rule="evenodd" d="M20.5372 19.0367L20.213 18.0044C20.201 17.9324 20.213 17.8604 20.249 17.7884C20.297 17.7284 20.3692 17.6924 20.4532 17.6924H25.1223C25.1943 17.6924 25.2663 17.7284 25.3143 17.7884C25.3623 17.8604 25.3743 17.9324 25.3503 18.0044L25.0863 18.8685C24.9182 18.7365 24.7142 18.6525 24.4982 18.6285C24.03 18.5805 23.694 18.8325 23.3698 19.1087C23.3338 19.1447 23.2618 19.2047 23.1898 19.2527C23.1778 19.2407 23.1658 19.2287 23.1658 19.2167C22.9017 18.8925 22.5537 18.6765 22.1335 18.6765C21.6655 18.6765 21.2093 18.9765 20.9332 19.3367C20.9212 19.3487 20.9092 19.3727 20.8852 19.3847C20.8732 19.3727 20.8492 19.3487 20.8372 19.3367C20.7532 19.2287 20.6452 19.1207 20.5372 19.0367Z" fill="white"/>
<path fill-rule="evenodd" clip-rule="evenodd" d="M22.7937 18.1725C22.6617 18.1725 22.5537 18.0645 22.5537 17.9325V14.1035C22.5537 13.9715 22.6617 13.8635 22.7937 13.8635C22.9257 13.8635 23.0339 13.9715 23.0339 14.1035V17.9325C23.0339 18.0645 22.9257 18.1725 22.7937 18.1725Z" fill="white"/>
<path fill-rule="evenodd" clip-rule="evenodd" d="M22.1575 16.7801L21.4374 16.0599C21.3894 16.0119 21.3654 15.9519 21.3654 15.8919C21.3654 15.8319 21.3894 15.7719 21.4374 15.7239L22.1575 15.0037V16.7801ZM23.4419 14.4036L24.162 15.1237C24.246 15.2197 24.246 15.3757 24.162 15.4597L23.4419 16.1799V14.4036Z" fill="white"/>
</svg>
