<svg width="26" height="28" viewBox="0 0 26 28" fill="none" xmlns="http://www.w3.org/2000/svg">
<path d="M13.9562 0.666748C14.9646 0.666748 15.8775 1.22675 16.3817 2.05341C16.6269 2.45341 16.7904 2.94675 16.7496 3.46675C16.7223 3.86675 16.845 4.26675 17.063 4.64008C17.7579 5.77341 19.2976 6.20008 20.4967 5.56008C21.8457 4.78675 23.549 5.25341 24.3257 6.57341L25.2386 8.14675C26.0289 9.46675 25.5929 11.1601 24.2303 11.9201C23.0721 12.6001 22.6633 14.1067 23.3582 15.2534C23.5762 15.6134 23.8215 15.9201 24.203 16.1067C24.68 16.3601 25.0479 16.7601 25.3068 17.1601C25.8109 17.9867 25.77 19.0001 25.2795 19.8934L24.3257 21.4934C23.8215 22.3467 22.8813 22.8801 21.9139 22.8801C21.4369 22.8801 20.9055 22.7467 20.4695 22.4801C20.1152 22.2534 19.7064 22.1734 19.2704 22.1734C17.9214 22.1734 16.7904 23.2801 16.7496 24.6001C16.7496 26.1334 15.496 27.3334 13.929 27.3334H12.0758C10.4952 27.3334 9.24159 26.1334 9.24159 24.6001C9.21434 23.2801 8.08337 22.1734 6.73439 22.1734C6.28473 22.1734 5.87594 22.2534 5.53529 22.4801C5.09926 22.7467 4.55421 22.8801 4.09092 22.8801C3.10985 22.8801 2.16964 22.3467 1.66548 21.4934L0.725278 19.8934C0.221113 19.0267 0.193861 17.9867 0.698026 17.1601C0.916044 16.7601 1.32483 16.3601 1.78811 16.1067C2.16964 15.9201 2.41491 15.6134 2.64656 15.2534C3.32786 14.1067 2.91908 12.6001 1.76086 11.9201C0.411878 11.1601 -0.024157 9.46675 0.752531 8.14675L1.66548 6.57341C2.45579 5.25341 4.14543 4.78675 5.50804 5.56008C6.69351 6.20008 8.23326 5.77341 8.92819 4.64008C9.14621 4.26675 9.26884 3.86675 9.24159 3.46675C9.21434 2.94675 9.36422 2.45341 9.62312 2.05341C10.1273 1.22675 11.0402 0.693415 12.0349 0.666748H13.9562ZM13.016 10.2401C10.8767 10.2401 9.14621 11.9201 9.14621 14.0134C9.14621 16.1067 10.8767 17.7734 13.016 17.7734C15.1553 17.7734 16.845 16.1067 16.845 14.0134C16.845 11.9201 15.1553 10.2401 13.016 10.2401Z" fill="#5D7285"/>
</svg>
